<svg width="100%" height="100%" id="svg" viewBox="0 0 1440 390" xmlns="http://www.w3.org/2000/svg" class="transition duration-300 ease-in-out delay-150">
<path d="M 0,400 L 0,75 C 80.67857142857139,86.75 161.35714285714278,98.5 296,102 C 430.6428571428572,105.5 619.2500000000002,100.75 758,87 C 896.7499999999998,73.25 985.6428571428571,50.5 1091,47 C 1196.357142857143,43.5 1318.1785714285716,59.25 1440,75 L 1440,400 L 0,400 Z" stroke="none" stroke-width="0" fill="#9AB5DB" fill-opacity="0.16" class="transition-all duration-300 ease-in-out delay-150 path-0"></path>
<path d="M 0,400 L 0,175 C 90.03571428571428,183.85714285714286 180.07142857142856,192.71428571428572 295,180 C 409.92857142857144,167.28571428571428 549.7499999999999,133 697,137 C 844.2500000000001,141 998.9285714285716,183.28571428571428 1124,196 C 1249.0714285714284,208.71428571428572 1344.5357142857142,191.85714285714286 1440,175 L 1440,400 L 0,400 Z" stroke="none" stroke-width="0" fill="#9AB5DB" fill-opacity="0.16" class="transition-all duration-300 ease-in-out delay-150 path-1"></path>
</svg>