<svg width="1057" height="265" viewBox="0 0 1057 265" fill="none" xmlns="http://www.w3.org/2000/svg">
<path d="M0 18.7785C0 18.7785 84.3936 2.08926 137.7 0.642853C191.006 -0.803558 212.547 0.642853 212.547 0.642853C212.547 0.642853 262.155 2.81241 272.814 5.72375C272.814 5.72375 298.925 7.98608 301.099 9.3954C303.273 10.8047 371.159 18.0553 445.788 41.2903C490.86 55.3093 536.015 66.1573 581.292 66.7878C628.76 67.4553 676.256 62.43 723.568 49.8575C755.823 41.2903 788.211 34.7445 820.55 30.5907C868.29 24.4528 916.059 25.3985 963.805 30.0158C992.134 32.7603 1020.6 36.0425 1048.8 45.9262C1051.54 46.8905 1054.28 47.8919 1057 49.2455V264.036H780.85H566.318H315.245H77.8659C77.8659 264.036 0 266.205 0 264.036C0 261.866 0 18.7785 0 18.7785Z" fill="#9AB5DB" fill-opacity="0.16"/>
</svg>
